<?xml version="1.0" encoding="UTF-8"?>
<!DOCTYPE svg PUBLIC "-//W3C//DTD SVG 1.1//EN" "http://www.w3.org/Graphics/SVG/1.1/DTD/svg11.dtd">
<!-- Creator: CorelDRAW X7 -->
<svg xmlns="http://www.w3.org/2000/svg" xml:space="preserve" width="279.4mm" height="215.9mm" version="1.1" style="shape-rendering:geometricPrecision; text-rendering:geometricPrecision; image-rendering:optimizeQuality; fill-rule:evenodd; clip-rule:evenodd"
viewBox="0 0 27940 21590"
 xmlns:xlink="http://www.w3.org/1999/xlink">
 <defs>
  <style type="text/css">
   <![CDATA[
    .fil2 {fill:black}
    .fil0 {fill:url(#id0)}
    .fil1 {fill:url(#id1)}
   ]]>
  </style>
  <linearGradient id="id0" gradientUnits="userSpaceOnUse" x1="13212.9" y1="14850.7" x2="6451.02" y2="6739.28">
   <stop offset="0" style="stop-opacity:1; stop-color:#D96C7E"/>
   <stop offset="1" style="stop-opacity:1; stop-color:#E37A8B"/>
  </linearGradient>
  <linearGradient id="id1" gradientUnits="userSpaceOnUse" xlink:href="#id0" x1="10675.1" y1="6003.93" x2="10551.5" y2="5891.01">
  </linearGradient>
 </defs>
 <g id="Capa_x0020_1">
  <metadata id="CorelCorpID_0Corel-Layer"/>
  <g id="_1926501322208">
   <g>
    <g>
     <path class="fil0" d="M11528 14896c0,54 -55,64 -127,64 -12,-49 -44,-62 -20,-73 28,-12 -2,-1 11,1 1,0 3,1 4,1 60,11 132,-40 132,7zm-8798 -11040l109 0c151,19 297,111 425,189 65,40 124,88 188,131 61,41 132,76 191,120 154,117 210,115 395,243 19,13 31,20 50,34l291 176c20,13 26,18 48,30 169,90 315,217 464,336 26,21 53,52 78,77 134,134 76,107 196,115 131,10 232,86 329,153 157,109 309,241 500,286 31,-47 133,-106 212,-106 148,0 227,48 305,168 24,37 47,34 88,55 151,74 212,217 286,272 -6,-27 -29,-56 -42,-78 -72,-126 -162,-242 -231,-370 -27,-50 -48,-156 -64,-177 -40,-50 -68,-86 -79,-162 -13,-82 8,-118 35,-189 21,-57 -93,-232 -93,-425 0,-172 158,-277 291,-347 170,-88 133,-72 256,-16 156,70 368,327 502,454 21,20 30,41 55,57 24,-12 32,-20 55,-37 297,-221 513,127 717,264 30,-45 154,-114 205,-149 57,31 124,68 176,107 28,22 51,43 71,70 32,43 101,32 176,108 13,13 23,22 35,36 62,67 100,33 235,111 107,62 149,124 258,167 37,14 58,26 86,48 55,41 91,102 101,182 5,36 -1,29 30,41 19,8 32,13 51,21 59,22 210,-83 464,158 65,63 189,163 214,268 70,0 151,24 198,49 -2,-23 -9,-42 -14,-64 -7,-3 -4,0 -12,-1 -45,-8 -127,-77 -157,-106 -102,-103 -107,-222 -44,-346 18,-34 55,-70 85,-92 59,-42 145,-71 219,-92 18,-5 14,11 19,-6l18 -85c4,-26 0,-64 27,-64 251,0 376,-17 600,94 38,19 95,60 124,88 18,17 37,35 53,53 46,55 30,61 97,44 12,-3 35,-7 41,-8 164,-25 160,1 267,26 -4,-19 -19,-64 -30,-76 -12,-13 -90,-27 -269,-240 -25,-30 -80,-71 -90,-109 69,-36 135,-75 208,-110 40,-21 65,-40 109,-53 58,-18 122,-22 185,-16 2021,1423 6649,4727 6664,5173 20,570 -688,491 -688,491 0,0 275,335 39,374 -236,39 -511,-59 -511,-59 0,0 747,1062 354,1239 -393,177 -1848,-216 -1848,-216 0,0 688,1496 295,1632 -394,136 -984,78 -984,78 0,0 99,1102 -295,1239 -129,46 -269,31 -397,-9 -10,-6 -20,-12 -31,-18l-4 7c-245,-86 -443,-255 -443,-255l403 342c-14,30 -30,60 -50,89 -71,106 -188,181 -300,237 -319,160 -468,-33 -621,-56 -46,-7 -63,-2 -107,-14 -30,-8 -53,-22 -75,-37 -52,-36 -77,-86 -120,-115 -27,19 -47,35 -80,55 -154,91 -318,158 -500,150 -69,-2 -150,-38 -198,-63 -28,18 -50,36 -79,55 -69,45 -371,164 -458,193 -53,18 -137,49 -206,49 -98,0 -233,-42 -276,-106l-156 14c0,65 8,63 51,111 19,21 37,44 52,69 25,40 60,115 60,174 0,111 -8,106 -31,203 -16,71 58,149 -16,302 -17,35 -22,60 -57,78 -172,88 -192,59 -342,47 24,101 33,177 -16,273 -44,86 -269,392 -339,447 -36,29 -65,65 -106,92 -136,92 -277,146 -440,68 -26,-13 -42,-20 -64,-36 -19,-15 -37,-31 -61,-38 -54,80 -105,149 -187,203 -108,71 -195,101 -267,109l-71 0c-108,-12 -177,-71 -242,-82 -52,-9 -89,-13 -136,-34 -49,-22 -57,-43 -95,-68 -45,10 -193,127 -375,127 -191,0 -217,-62 -324,-129 -29,-18 -60,-35 -91,-50 -168,-83 -190,-157 -254,-171 -81,-17 -139,-32 -213,-63 -83,-35 -138,-93 -190,-164 -41,-54 -153,-48 -271,-224 -76,-112 -41,-77 -133,-143 -41,-29 -81,-62 -110,-103 -53,-76 -31,-41 -112,-100 -16,-12 -24,-20 -36,-35l-103 -109c-19,-25 -12,-16 -36,-35 -15,-13 -19,-24 -33,-38l-360 -340c-17,-15 -23,-16 -40,-31 -13,-13 -22,-23 -35,-36 -26,-26 -48,-39 -74,-67 -46,-47 -96,-108 -97,-179 -72,0 -180,-40 -232,-66 -38,-19 -62,-31 -94,-54l-96 -81c-1,-1 -3,-2 -4,-3l-47 -60c-25,-34 -36,-56 -50,-97 -67,-199 48,-137 -195,-245 -303,-135 -329,-231 -488,-531 -52,-98 -178,-127 -274,-172 -18,-9 -25,-15 -44,-26 -138,-74 -190,-110 -278,-239 -31,-45 -97,-26 -182,-108 -22,-22 -59,-49 -69,-79 -17,-51 9,-78 -39,-110 -68,-46 -189,-133 -238,-194 -111,-137 -79,-206 -77,-298 -60,-32 -99,-91 -122,-154 -12,-33 -4,-39 -28,-64 -18,-20 -32,-23 -50,-42 -51,-56 -32,-44 -104,-80 -95,-47 -167,-134 -208,-238 -20,-50 -29,-94 -38,-146 -8,-47 -42,-44 -94,-83 -59,-45 -126,-133 -166,-201 -25,-41 -61,-58 -94,-91 -38,-38 -54,-106 -98,-128 -120,-61 -178,-136 -263,-233 -15,-18 -30,-28 -45,-47 -13,-15 -29,-31 -34,-50 23,-35 63,-73 94,-104 27,-29 57,-84 97,-94 -19,-29 -35,-52 -50,-85 -17,-39 -21,-57 -21,-114 -32,-2 -37,-21 -49,-42 -14,-24 -52,-101 -69,-116 -45,-38 -61,-9 -152,-123 -52,-66 -34,-57 -34,-136 0,-3 -47,-42 -55,-52 -47,-56 -78,-123 -135,-169l-286 -230c-16,-15 -38,-31 -55,-44 -99,-77 -181,-174 -266,-265l-38 -47c36,-55 215,-168 240,-205 -143,-12 -278,-206 -377,-288 -60,-50 -117,-107 -164,-169 -29,-38 -99,-169 -110,-215 16,-23 42,-46 63,-72 186,-234 436,-158 653,-22 65,41 353,243 405,268 31,16 61,29 89,45 56,33 107,71 162,108 55,37 109,66 167,101 111,67 220,136 321,217l113 93c31,26 64,84 99,98 82,34 77,-39 370,169 27,19 50,35 79,55 37,24 124,93 175,93 4,0 106,-75 198,-70 27,2 85,15 109,25 39,17 53,32 83,52 -4,-16 -9,-38 -13,-51 -15,-53 -115,-128 -63,-286 40,-118 -52,-118 -52,-349 0,-124 98,-218 196,-271 36,-20 157,-90 187,-90 39,0 183,94 217,122l60 53c69,61 153,173 225,221 181,-121 325,-26 431,65 -163,385 -251,845 -249,1384 4,1087 423,2043 1375,2544 467,247 1017,345 1627,323 422,-16 889,-84 1303,-165 118,-23 290,-49 400,-84 10,-121 1,-1116 2,-1279 5,-711 84,-617 592,-687l-1 -341 -2330 0 0 342c542,47 577,55 591,589 5,195 1,394 1,589 0,183 11,403 -1,582 -228,58 -365,99 -625,91 -597,-18 -1081,-262 -1367,-769 -362,-640 -420,-1623 -322,-2447 8,-67 18,-132 28,-197 61,29 115,62 144,189 27,6 20,1 57,0 157,-5 207,55 326,135 0,-40 1,-52 14,-78 -24,-13 -60,-30 -80,-48 -42,-36 -97,-80 -103,-137 -5,-41 -8,-68 -8,-113 -45,-10 -237,-157 -296,-207l-1 -1c152,-628 466,-1101 1025,-1280 359,-114 902,-101 1258,13 135,43 379,152 453,261 97,142 98,415 98,611l543 -1 0 -1084c-1045,-275 -2407,-400 -3353,81 -231,118 -437,266 -615,447 -104,-37 -175,-119 -235,-208 -70,-105 -95,-226 -95,-358 -60,-5 -132,-60 -171,-91 -91,-74 -153,-184 -213,-282 -32,-52 -124,-51 -196,-222 -35,-83 -58,-46 -155,-106 -23,-14 -50,-38 -72,-55l-247 -270c24,-36 35,-46 65,-76 84,-83 114,-130 218,-200 -9,-13 -36,-33 -51,-48 -67,-67 -123,-201 -76,-299 -90,-8 -86,-13 -123,-76 -34,-58 -44,-60 -61,-136 -76,-7 -146,-66 -186,-112 -102,-115 -55,-79 -55,-214 -139,-93 -152,-183 -257,-288 -67,-68 -149,-120 -225,-178 -78,-58 -144,-123 -220,-184l-181 -159c-16,-15 -21,-15 -35,-28l-193 -210c13,-20 24,-29 42,-43 67,-51 144,-139 221,-169 35,-14 79,-29 126,-29 -17,-25 -32,-45 -50,-70 -28,-38 -23,-37 -72,-49 -62,-15 -119,-35 -172,-68 -65,-39 -143,-109 -191,-170 -50,-63 -249,-225 -305,-297 -21,-28 -35,-37 -55,-65 -53,-70 -84,-152 -124,-229 30,-46 101,-119 145,-152 64,-48 129,-73 193,-82zm2967 10750c-47,0 -39,0 -71,-21 29,-44 134,-75 134,-29 0,23 -36,50 -63,50zm-3015 -2838l42 -21 50 64c-5,21 -9,20 -14,42 -46,-4 -65,-56 -78,-85zm13927 -21c0,38 6,93 -7,120 -28,-2 -25,-8 -34,-30 -32,-75 -78,-80 41,-90zm-9214 -630l0 0zm-863 -7l42 0 0 7c-37,0 -42,14 -42,-7zm863 7c-30,-3 -50,-15 -78,-21l57 -14c8,15 12,21 21,35zm-510 -481l8 -71c73,2 52,9 89,80 45,88 24,28 3,118 -43,-20 -43,7 -71,-42 -13,-22 -29,-52 -29,-85zm10269 -149c23,-31 19,-7 99,-7 -3,40 -20,40 -28,71l-71 -64zm-637 -389c-53,0 -39,-5 -70,-7 3,-137 99,-116 99,-78 0,29 4,85 -29,85zm-297 -290c-23,-16 -16,-12 -28,-36 30,-16 33,-26 64,-42 -6,25 -25,56 -36,78zm-1585 -1592c0,-55 -4,-40 7,-85 77,51 94,99 127,169 -18,1 -80,9 -92,15 -19,-29 -42,-50 -42,-99zm-9802 -680l0 -7c0,-20 3,-13 14,-21l0 49c-12,-8 -14,-1 -14,-21zm5909 -1054c78,18 106,43 234,21 86,-15 52,-42 143,70 11,14 11,17 25,31 165,171 264,158 344,201 21,11 62,141 106,219 14,25 24,46 39,67 16,24 29,43 47,67 34,45 61,80 97,122l105 115c-26,-2 -58,-26 -83,-38l-250 -132c0,-126 -9,-164 -82,-258 -117,-151 -388,-221 -560,-289l-129 -41c0,-65 -13,-113 -36,-155zm-2038 -85c11,-8 26,-21 43,-21 57,0 95,45 106,92 -65,15 -105,11 -149,-71zm3518 -340l29 27c-26,-5 -23,-2 -29,-27zm0 0l0 0zm-1614 36c-30,-8 -94,-13 -119,-23 -66,-26 -65,-181 -17,-234 64,-72 69,-57 146,-44 125,22 59,22 96,180 -34,23 -95,78 -106,121zm1316 -531c-15,-32 20,-70 36,-99 14,7 17,10 35,14l-71 85zm121 -156c-21,-10 -20,-7 -50,-7l71 -127c-4,42 -20,91 -21,134zm-3588 -141c-21,-31 -42,-31 -64,-64 33,-49 63,-33 79,-31 46,7 77,0 119,10 -7,6 2,0 -12,9l-122 76z"/>
     <path class="fil1" d="M10601 6008c31,0 71,-26 71,-57 0,-24 -25,-48 -36,-64 -133,31 -71,121 -35,121z"/>
    </g>
    <path class="fil2" d="M9149 16610l-1206 0 0 -98 21 -1c71,-5 115,-17 129,-37 14,-19 21,-77 21,-172l0 -965c0,-95 -7,-152 -21,-172 -14,-19 -57,-31 -129,-37l-21 -1 0 -98 1160 0 0 284 -158 0 -2 -20c-2,-37 -3,-58 -3,-65 0,-40 -10,-66 -29,-77 -19,-12 -61,-17 -128,-17l-339 0 0 599 221 0c85,0 133,-2 146,-6 12,-4 19,-37 21,-99l2 -20 111 0 0 342 -111 0 -2 -20c-2,-56 -12,-87 -30,-94 -19,-7 -65,-11 -137,-11l-227 0 0 476c0,118 14,181 42,189 20,6 77,9 170,9l133 0c106,0 166,-5 179,-15 13,-11 23,-60 28,-149l1 -20 158 0 0 295zm1709 -19l0 -331 158 0 1 26c5,94 23,154 54,179 65,53 142,80 231,80 84,0 152,-26 204,-78 52,-52 79,-120 79,-204 0,-66 -16,-120 -46,-161 -31,-39 -90,-84 -177,-132l-106 -58c-264,-146 -396,-305 -396,-476 0,-135 48,-243 144,-325 95,-81 222,-122 380,-122 124,0 266,24 426,70l0 320 -158 0 -1 -20c-5,-100 -20,-162 -43,-186 -54,-52 -120,-79 -200,-79 -68,0 -126,25 -173,74 -47,48 -70,108 -70,179 0,55 15,100 46,138 31,37 90,81 177,131l106 62c156,89 263,169 320,239 57,70 86,156 86,257 0,145 -54,260 -162,346 -108,87 -253,130 -435,130 -129,0 -277,-20 -445,-59zm3181 -628l0 339c0,97 8,154 24,173 15,18 67,30 153,36l20 1 0 98 -684 0 0 -98 20 -1c72,-5 115,-17 129,-37 14,-19 21,-77 21,-172l0 -965c0,-95 -7,-152 -21,-172 -13,-19 -57,-31 -129,-37l-20 -1 0 -98 486 0 205 -5 89 -2c311,0 467,140 467,419 0,173 -55,304 -166,391 -110,87 -275,131 -495,131l-99 0zm0 -105l63 0c121,0 211,-33 271,-99 61,-65 91,-163 91,-294 0,-221 -103,-331 -310,-331l-115 0 0 724zm2781 271l-79 171c-38,84 -57,142 -57,172 0,24 22,36 67,36 6,0 20,1 40,3l21 1 0 98 -423 0 0 -98 20 -1c57,-4 93,-13 107,-28 15,-15 47,-76 96,-184l588 -1284 109 0 594 1286c51,106 85,167 99,181 15,14 52,24 112,29l14 1 0 98 -659 0 0 -98 20 -1c89,-6 135,-20 136,-42 2,-21 -19,-78 -60,-170l-80 -170 -665 0zm50 -105l566 0 -287 -614 -279 614zm4047 608l-878 -1199 0 869c0,95 8,153 22,172 14,20 57,32 130,37l19 1 0 98 -497 0 0 -98 21 -1c72,-5 115,-17 129,-37 14,-19 21,-77 21,-172l0 -965c0,-95 -7,-152 -21,-172 -14,-19 -57,-31 -129,-37l-21 -1 0 -98 396 0 871 1193 0 -885c0,-95 -7,-152 -21,-172 -13,-19 -56,-31 -129,-37l-20 -1 0 -98 496 0 0 98 -19 1c-72,6 -116,18 -130,37 -14,20 -21,77 -21,172l0 1295 -219 0zm-764 -1737c0,-189 71,-284 211,-284 29,0 77,11 145,33l80 25c51,17 88,25 110,25 56,0 90,-28 104,-83l94 0c0,189 -71,284 -213,284 -26,0 -74,-11 -144,-33l-79 -24c-53,-18 -90,-26 -111,-26 -56,0 -89,28 -98,83l-99 0zm3208 1234l-78 171c-39,84 -58,142 -58,172 0,24 22,36 67,36 6,0 20,1 41,3l20 1 0 98 -423 0 0 -98 20 -1c57,-4 93,-13 107,-28 15,-15 47,-76 96,-184l588 -1284 109 0 594 1286c51,106 85,167 100,181 14,14 51,24 111,29l14 1 0 98 -659 0 0 -98 20 -1c89,-6 135,-20 136,-42 2,-21 -18,-78 -60,-170l-80 -170 -665 0zm50 -105l566 0 -287 -614 -279 614z"/>
   </g>
   <path class="fil2" d="M15181 11159l-249 0 0 -2351c59,0 397,-4 441,3 41,6 83,1 124,7 171,25 255,29 422,113 326,162 462,519 462,876 0,365 -34,596 -232,884 -39,58 -88,114 -140,158 -59,49 -40,39 -126,103 -51,38 -137,81 -198,107 -130,54 -323,100 -504,100zm-457 -2718l-1491 0 0 346 269 30c131,26 238,39 278,165 12,38 19,82 26,127 12,88 16,193 16,289l0 3585c0,116 3,421 -99,504 -73,60 -334,99 -435,99 -29,0 -55,-8 -55,21l0 326 2198 0 0 -326c0,-33 -37,-17 -106,-26 -103,-13 -240,-19 -316,-100 -62,-68 -77,-333 -77,-471l0 -1484 464 0c6,23 74,124 92,152 149,237 324,524 474,753l476 751c17,28 31,51 47,78l240 377c17,26 30,47 46,72 17,28 31,50 48,77l72 115c10,18 10,32 31,32l1629 0 0 -326c0,-35 -41,-15 -107,-25 -163,-24 -316,-10 -442,-154l-183 -219c-192,-245 -359,-486 -539,-737l-446 -622c-20,-26 -37,-49 -55,-77 -21,-31 -39,-52 -58,-80 -16,-22 -215,-292 -222,-319 94,-50 189,-78 312,-160 96,-63 184,-123 269,-202 295,-280 466,-695 466,-1115 0,-194 5,-302 -40,-494 -37,-157 -100,-313 -197,-441 -30,-41 -88,-114 -127,-144 -115,-89 -75,-74 -211,-156 -287,-173 -706,-242 -1041,-242 -408,0 -795,21 -1206,21z"/>
   <path class="fil2" d="M25867 12719c0,369 -152,653 -401,820 -281,189 -684,207 -997,100 -142,-49 -320,-141 -421,-252 -117,-129 -150,-486 -150,-668l-555 0 0 1130c0,25 25,24 71,33l268 58c792,159 1804,251 2524,-182 73,-44 199,-131 259,-191 21,-21 37,-30 59,-52 179,-181 286,-348 366,-591 6,-19 9,-26 15,-48 93,-373 84,-757 -82,-1106 -9,-17 -18,-33 -29,-54 -51,-102 -140,-210 -218,-288 -29,-30 -54,-54 -83,-84 -95,-95 -377,-298 -475,-364l-151 -98c-20,-12 -37,-21 -57,-34 -69,-43 -138,-84 -207,-126 -176,-105 -475,-268 -636,-376 -289,-194 -556,-378 -556,-789 0,-218 62,-394 181,-554 142,-190 382,-327 630,-327 232,0 399,35 581,154 179,117 221,204 257,423 22,128 31,270 43,408l548 0 0 -1116 -523 -129c-242,-48 -462,-88 -712,-100l-159 -7c-35,0 -48,-4 -71,-6l-235 12c-681,52 -1343,392 -1537,1084 -46,163 -78,409 -55,586 24,190 85,349 165,487 50,88 135,206 206,286 15,17 25,24 40,43 16,21 21,26 39,44l210 193c168,133 238,185 431,311l520 298c109,54 210,116 314,178l102 65c125,91 250,176 341,310 85,124 140,312 140,519z"/>
   <path class="fil2" d="M18697 8787l275 31c147,26 245,55 277,180 9,36 19,97 23,130 9,97 14,194 14,297l0 3537c0,154 -12,446 -88,515 -84,77 -334,109 -501,109l0 347 4230 0 0 -1304 -548 0c0,35 -7,53 -7,97l0 312c0,40 -7,53 -7,97 2,394 -26,387 -541,402l-672 7c-152,0 -359,-3 -507,-20 -68,-7 -89,-11 -121,-59 -75,-109 -86,-436 -86,-628l0 -3301c0,-178 6,-508 69,-610 62,-100 334,-121 463,-133 24,-2 64,-1 64,-27l0 -305c0,-16 -5,-20 -21,-20l-2316 0 0 346z"/>
   <path class="fil2" d="M10577 8787c85,0 258,23 344,45 124,31 185,54 214,181 36,160 38,559 38,745l0 3044c1,137 -11,455 -40,564 -31,122 -78,147 -213,181 -82,21 -178,32 -260,39 -106,8 -83,-73 -83,347l2337 0 0 -326c0,-31 -35,-19 -112,-27 -121,-13 -259,-21 -357,-80 -68,-41 -80,-97 -97,-187 -14,-78 -24,-182 -24,-268l0 -3710c0,-92 10,-181 22,-263 26,-191 93,-220 311,-257 69,-12 181,-28 257,-28l0 -346 -2337 0 0 346z"/>
   <path class="fil2" d="M8560 13613c12,-179 1,-399 1,-582 0,-195 4,-394 -1,-589 -14,-534 -49,-542 -591,-589l0 -342 2330 0 1 341c-508,70 -587,-24 -592,687 -1,163 8,1158 -2,1279 -110,35 -282,61 -400,84 -414,81 -881,149 -1303,165 -610,22 -1160,-76 -1627,-323 -952,-501 -1371,-1457 -1375,-2544 -4,-1299 509,-2140 1350,-2568 946,-481 2308,-356 3353,-81l0 1084 -543 1c0,-196 -1,-469 -98,-611 -74,-109 -318,-218 -453,-261 -356,-114 -899,-127 -1258,-13 -688,220 -1004,886 -1106,1737 -98,824 -40,1807 322,2447 286,507 770,751 1367,769 260,8 397,-33 625,-91zm-3738 -2558c0,365 -3,555 71,920 41,206 96,386 168,567 199,497 554,930 987,1219 38,25 70,45 109,71l240 127c45,19 83,41 130,58 233,85 300,113 567,167 344,69 781,82 1146,53l195 -19c244,-21 504,-65 746,-107l710 -144 0 -1491c0,-78 12,-282 32,-355 10,-33 14,-34 83,-50l474 -52 0 -687 -2690 0 0 687c45,0 390,37 454,51 114,26 101,17 118,139 35,253 17,1002 17,1266 -243,57 -459,64 -708,21 -30,-5 -74,-13 -103,-22 -63,-18 -125,-32 -186,-56 -126,-51 -209,-98 -316,-177 -407,-302 -565,-871 -632,-1344 -10,-71 -21,-153 -24,-225 -7,-154 -21,-316 -21,-478 0,-282 20,-600 66,-877 89,-537 297,-1090 798,-1331 53,-25 115,-50 170,-66 238,-66 325,-63 568,-63 277,0 531,48 769,166 151,75 181,122 202,270 21,154 20,358 20,528l902 0 0 -1415c-37,-3 -67,-15 -102,-24 -265,-67 -474,-115 -753,-161 -106,-18 -476,-70 -574,-72 -118,-1 -203,-21 -374,-21l-326 0c-124,0 -225,15 -340,21 -48,3 -112,14 -160,21 -278,38 -478,96 -734,188 -87,32 -170,70 -250,110 -173,87 -297,169 -448,288l-258 241c-383,417 -553,820 -677,1389l-46 322c-8,143 -20,196 -20,347z"/>
  </g>
 </g>
</svg>
