<svg width="687" height="538" viewBox="0 0 687 538" fill="none" xmlns="http://www.w3.org/2000/svg">
<path fill-rule="evenodd" clip-rule="evenodd" d="M408.756 427.654C408.756 429.77 406.602 430.11 403.805 430.11C403.389 428.258 402.104 427.729 403.049 427.313C404.145 426.86 402.973 427.276 403.502 427.351C403.54 427.351 403.616 427.389 403.654 427.389C405.959 427.805 408.756 425.839 408.756 427.654ZM67.9559 0H72.1512C78.0094 0.755906 83.6787 4.27087 88.6299 7.33228C91.1622 8.88189 93.4299 10.7339 95.8866 12.3969C98.2677 13.9843 101.027 15.3449 103.294 17.0457C109.304 21.5811 111.458 21.5055 118.602 26.4567C119.357 26.948 119.811 27.2504 120.529 27.7795L131.792 34.6205C132.586 35.1118 132.813 35.263 133.682 35.7543C140.22 39.2693 145.89 44.1827 151.635 48.7559C152.655 49.5874 153.713 50.7969 154.696 51.7417C159.874 56.9575 157.606 55.8992 162.293 56.2394C167.32 56.5795 171.25 59.5276 175.03 62.1354C181.115 66.3307 186.973 71.4709 194.381 73.2094C195.591 71.3953 199.559 69.0898 202.583 69.0898C208.328 69.0898 211.351 70.9417 214.413 75.6283C215.357 77.0646 216.227 76.9512 217.814 77.7449C223.672 80.6173 226.016 86.1732 228.926 88.2898C228.661 87.2693 227.754 86.0976 227.263 85.2661C224.466 80.3528 220.989 75.8929 218.306 70.9417C217.247 69.0142 216.454 64.8945 215.811 64.1008C214.261 62.1354 213.203 60.737 212.787 57.8268C212.296 54.6142 213.09 53.2157 214.11 50.4567C214.942 48.2646 210.557 41.4992 210.557 34.0157C210.557 27.3638 216.643 23.2819 221.783 20.5984C228.397 17.1591 226.923 17.8016 231.723 19.9559C237.77 22.6772 245.972 32.6173 251.15 37.5307C251.981 38.3244 252.321 39.1181 253.304 39.7606C254.249 39.2693 254.551 38.9669 255.42 38.3244C266.948 29.7449 275.263 43.2378 283.2 48.5291C284.334 46.7906 289.134 44.1071 291.137 42.7843C293.367 43.9559 295.937 45.4299 297.94 46.9417C299.074 47.7354 299.943 48.5669 300.737 49.6252C301.946 51.2882 304.63 50.8724 307.54 53.8205C308.031 54.3118 308.409 54.652 308.901 55.1811C311.282 57.789 312.756 56.5039 318.009 59.5276C322.129 61.9087 323.754 64.2898 327.987 65.9528C329.424 66.5197 330.217 67.011 331.313 67.8425C333.43 69.4299 334.828 71.811 335.244 74.8724C335.433 76.2709 335.206 76.0063 336.378 76.4976C337.096 76.7622 337.625 76.989 338.381 77.2535C340.649 78.1228 346.507 74.0409 356.334 83.4142C358.828 85.8331 363.666 89.726 364.611 93.7701C367.332 93.7701 370.469 94.715 372.283 95.6976C372.208 94.7906 371.943 94.0346 371.754 93.2031C371.452 93.0898 371.603 93.2031 371.301 93.1654C369.562 92.863 366.35 90.1795 365.216 89.0457C361.247 85.0772 361.058 80.4283 363.515 75.6661C364.195 74.3433 365.631 72.9449 366.803 72.1134C369.071 70.4504 372.397 69.3543 375.269 68.5228C375.987 68.3339 375.836 68.9386 376.025 68.2961L376.706 65.0079C376.857 63.9874 376.706 62.5134 377.764 62.5134C387.477 62.5134 392.315 61.8709 400.97 66.1795C402.482 66.8976 404.674 68.485 405.808 69.5811C406.488 70.2236 407.244 70.9417 407.849 71.6598C409.625 73.7764 409.02 74.0031 411.628 73.3228C412.082 73.2094 412.951 73.0583 413.216 73.0205C419.565 72.0756 419.414 73.0583 423.534 74.0409C423.383 73.3228 422.816 71.5465 422.362 71.0929C421.909 70.6016 418.885 70.0346 411.969 61.7575C410.986 60.6236 408.869 59.0362 408.491 57.6C411.137 56.1638 413.707 54.6898 416.504 53.2913C418.091 52.4976 419.074 51.7795 420.775 51.2504C423.005 50.5323 425.499 50.3811 427.918 50.6457C506.192 105.751 685.493 233.726 686.06 250.998C686.854 273.109 659.414 270.047 659.414 270.047C659.414 270.047 670.072 283.011 660.926 284.523C651.817 286.035 641.121 282.255 641.121 282.255C641.121 282.255 670.072 323.376 654.841 330.217C639.609 337.096 583.257 321.865 583.257 321.865C583.257 321.865 609.902 379.805 594.671 385.096C579.439 390.35 556.573 388.12 556.573 388.12C556.573 388.12 560.391 430.791 545.159 436.12C540.132 437.858 534.728 437.329 529.739 435.78C529.361 435.515 528.983 435.288 528.567 435.061L528.416 435.326C518.929 432 511.257 425.461 511.257 425.461L526.866 438.69C526.299 439.861 525.694 441.033 524.939 442.129C522.18 446.249 517.644 449.159 513.298 451.313C500.939 457.55 495.194 450.066 489.26 449.159C487.483 448.857 486.803 449.083 485.102 448.63C483.931 448.29 483.024 447.761 482.154 447.156C480.189 445.795 479.206 443.83 477.543 442.734C476.485 443.452 475.691 444.094 474.444 444.85C468.51 448.365 462.123 450.973 455.093 450.671C452.409 450.557 449.235 449.197 447.383 448.214C446.324 448.932 445.455 449.65 444.321 450.369C441.676 452.107 429.997 456.718 426.595 457.852C424.554 458.532 421.304 459.742 418.62 459.742C414.803 459.742 409.587 458.117 407.924 455.622L401.877 456.151C401.877 458.683 402.217 458.608 403.88 460.498C404.598 461.291 405.317 462.161 405.883 463.143C406.828 464.693 408.189 467.565 408.189 469.871C408.189 474.18 407.924 473.991 407.017 477.77C406.375 480.491 409.247 483.515 406.375 489.449C405.694 490.809 405.543 491.792 404.183 492.472C397.493 495.874 396.737 494.74 390.917 494.287C391.824 498.217 392.202 501.128 390.312 504.869C388.611 508.195 379.88 520.063 377.197 522.18C375.798 523.313 374.627 524.674 373.077 525.732C367.786 529.285 362.343 531.402 356.031 528.378C355.011 527.887 354.406 527.622 353.575 526.98C352.819 526.413 352.101 525.77 351.194 525.506C349.115 528.605 347.112 531.288 343.937 533.367C339.742 536.126 336.378 537.298 333.619 537.6H330.86C326.665 537.146 323.981 534.841 321.449 534.387C319.446 534.047 318.047 533.896 316.195 533.102C314.306 532.233 314.003 531.439 312.529 530.457C310.791 530.872 305.046 535.408 297.978 535.408C290.608 535.408 289.587 532.989 285.43 530.381C284.334 529.701 283.124 529.058 281.915 528.454C275.414 525.203 274.545 522.369 272.088 521.839C268.951 521.197 266.721 520.592 263.849 519.383C260.636 518.06 258.482 515.792 256.441 513.071C254.891 510.954 250.545 511.181 245.972 504.378C243.024 499.994 244.384 501.392 240.794 498.822C239.244 497.688 237.694 496.403 236.561 494.816C234.482 491.868 235.351 493.228 232.252 490.961C231.609 490.507 231.269 490.167 230.816 489.6L226.847 485.367C226.091 484.422 226.356 484.762 225.449 484.006C224.844 483.515 224.693 483.099 224.164 482.532L210.217 469.38C209.575 468.813 209.31 468.737 208.668 468.17C208.176 467.679 207.836 467.301 207.307 466.772C206.324 465.789 205.455 465.26 204.435 464.202C202.696 462.35 200.731 460.006 200.655 457.247C197.896 457.247 193.701 455.698 191.698 454.715C190.224 453.959 189.317 453.468 188.069 452.598L184.328 449.499C184.29 449.424 184.214 449.386 184.176 449.348L182.362 447.043C181.38 445.72 180.964 444.85 180.397 443.263C177.827 435.553 182.287 437.934 172.876 433.776C161.121 428.561 160.101 424.819 153.978 413.216C151.975 409.436 147.099 408.265 143.357 406.564C142.639 406.224 142.413 405.959 141.657 405.543C136.328 402.671 134.287 401.272 130.885 396.283C129.713 394.507 127.143 395.263 123.817 392.088C122.948 391.257 121.55 390.198 121.134 389.027C120.491 387.061 121.474 386.003 119.66 384.756C117.052 383.017 112.328 379.616 110.438 377.272C106.129 371.943 107.376 369.298 107.452 365.707C105.146 364.46 103.635 362.192 102.728 359.735C102.236 358.45 102.576 358.224 101.669 357.241C100.951 356.485 100.422 356.409 99.7039 355.616C97.7386 353.461 98.4567 353.915 95.6598 352.554C91.9937 350.74 89.1969 347.339 87.6094 343.332C86.8157 341.405 86.4756 339.704 86.1354 337.663C85.8331 335.849 84.5102 336 82.5071 334.45C80.2394 332.712 77.6315 329.272 76.0441 326.665C75.137 325.077 73.7008 324.435 72.4157 323.15C70.9795 321.676 70.337 319.03 68.6362 318.161C63.9874 315.817 61.7575 312.907 58.4693 309.165C57.8646 308.485 57.2976 308.069 56.6929 307.351C56.2016 306.746 55.5591 306.142 55.3701 305.386C56.2772 304.025 57.8268 302.589 58.9984 301.342C60.0945 300.246 61.2283 298.129 62.778 297.713C62.022 296.617 61.4173 295.71 60.8504 294.425C60.1701 292.951 60.0189 292.233 60.0189 290.041C58.7717 289.928 58.5827 289.209 58.1291 288.378C57.6 287.471 56.126 284.485 55.4835 283.918C53.7071 282.444 53.1024 283.54 49.5874 279.118C47.5465 276.586 48.2646 276.926 48.2646 273.865C48.2646 273.751 46.4126 272.239 46.148 271.861C44.2961 269.669 43.0866 267.099 40.8945 265.323L29.8205 256.403C29.178 255.798 28.3465 255.194 27.6661 254.702C23.8488 251.717 20.674 247.975 17.3858 244.422L15.9118 242.608C17.3102 240.491 24.2646 236.107 25.2094 234.671C19.6535 234.217 14.4378 226.696 10.6205 223.521C8.31496 221.594 6.08504 219.402 4.27087 216.983C3.13701 215.471 0.415748 210.406 0 208.63C0.604724 207.723 1.6252 206.854 2.4189 205.833C9.6378 196.8 19.3134 199.748 27.7417 205.002C30.2362 206.589 41.3858 214.413 43.389 215.395C44.5984 216 45.7701 216.491 46.8661 217.134C49.0205 218.381 51.0236 219.893 53.1402 221.291C55.2567 222.728 57.3354 223.861 59.6031 225.222C63.9118 227.83 68.1071 230.476 72.0756 233.613L76.3843 237.203C77.6315 238.261 78.9165 240.454 80.2772 241.02C83.4142 242.343 83.263 239.509 94.5638 247.559C95.622 248.277 96.5291 248.92 97.663 249.676C99.0992 250.658 102.463 253.304 104.428 253.304C104.58 253.304 108.548 250.394 112.101 250.62C113.159 250.658 115.389 251.187 116.334 251.565C117.846 252.208 118.375 252.813 119.509 253.569C119.395 252.964 119.206 252.094 119.055 251.603C118.45 249.562 114.557 246.652 116.598 240.529C118.148 235.956 114.595 235.956 114.595 226.998C114.595 222.198 118.375 218.57 122.192 216.491C123.591 215.698 128.239 213.014 129.411 213.014C130.923 213.014 136.517 216.643 137.802 217.739L140.145 219.817C142.828 222.161 146.079 226.507 148.876 228.359C158.816 221.707 165.883 231.95 169.965 234.671C171.969 234.217 173.556 232.063 175.446 231.345C176.769 230.854 179.868 233.235 181.115 233.953C183.231 235.087 184.214 237.014 186.066 237.77C187.465 238.337 187.805 238.564 188.901 239.32C189.808 240 190.337 240.831 191.131 241.436C192.756 242.646 195.553 243.061 197.216 244.157C198.161 244.8 199.068 245.216 199.899 245.858C200.617 246.425 201.638 247.408 202.318 247.824C205.72 249.94 209.197 249.676 210.822 256.592C211.843 256.819 211.578 256.63 212.976 256.592C219.061 256.403 221.027 258.746 225.6 261.808C225.6 260.296 225.676 259.805 226.167 258.784C225.222 258.293 223.861 257.65 223.068 256.932C221.48 255.534 219.326 253.833 219.061 251.641C218.91 250.054 218.759 249.033 218.759 247.294C217.02 246.879 209.613 241.172 207.345 239.244C203.074 235.616 199.294 230.362 200.806 223.559C201.033 222.463 201.411 222.123 201.487 220.951C196.951 219.893 194.457 215.169 193.663 210.973C193.209 208.517 191.244 208.592 189.354 206.513C185.839 202.658 188.447 203.679 184.668 202.431C180.472 201.033 177.638 197.783 175.294 194.268C172.535 190.186 171.628 185.499 171.628 180.397C169.285 180.208 166.488 178.091 164.976 176.882C161.461 174.009 159.043 169.739 156.737 165.959C155.49 163.918 151.899 163.956 149.14 157.38C147.78 154.167 146.872 155.565 143.093 153.26C142.224 152.693 141.165 151.786 140.334 151.106L130.772 140.636C131.679 139.276 132.132 138.86 133.304 137.688C136.554 134.476 137.688 132.661 141.732 129.94C141.392 129.487 140.334 128.693 139.729 128.126C137.159 125.518 134.967 120.302 136.781 116.523C133.342 116.22 133.493 116.031 132.057 113.575C130.734 111.345 130.356 111.269 129.676 108.283C126.728 108.057 124.044 105.751 122.457 103.975C118.526 99.515 120.34 100.913 120.34 95.6976C114.935 92.0693 114.444 88.5921 110.4 84.5102C107.792 81.9024 104.617 79.8614 101.669 77.6315C98.6457 75.3638 96.1134 72.8693 93.1654 70.4882L86.1354 64.3654C85.5307 63.7606 85.3417 63.7606 84.7748 63.2693L77.2913 55.1055C77.8205 54.3496 78.2362 54.0094 78.9543 53.4803C81.5244 51.515 84.548 48.0756 87.4961 46.9039C88.8567 46.3748 90.5575 45.8079 92.3717 45.8079C91.7291 44.8252 91.1244 44.0315 90.4441 43.0866C89.348 41.6126 89.5748 41.6504 87.685 41.1969C85.2661 40.5921 83.074 39.8362 80.9953 38.5512C78.463 37.0394 75.4394 34.3181 73.5874 31.9748C71.622 29.5181 63.9496 23.2441 61.7953 20.4472C60.9638 19.389 60.4346 19.011 59.6409 17.9528C57.6 15.2315 56.3906 12.0567 54.8409 9.07087C56.0126 7.29449 58.7717 4.45984 60.4724 3.1748C62.9291 1.32283 65.4614 0.340157 67.9559 0ZM182.854 416.428C181.039 416.428 181.38 416.428 180.094 415.597C181.228 413.934 185.31 412.724 185.31 414.501C185.31 415.37 183.912 416.428 182.854 416.428ZM66.0661 306.482L67.6913 305.65L69.6189 308.145C69.4299 308.976 69.2787 308.939 69.0898 309.77C67.3134 309.619 66.5575 307.616 66.0661 306.482ZM605.594 305.688C605.594 307.162 605.82 309.279 605.291 310.337C604.233 310.224 604.346 309.997 604.006 309.165C602.759 306.255 600.983 306.066 605.594 305.688ZM215.206 281.008H216.831V281.272C215.433 281.272 215.244 281.802 215.206 281.008ZM248.655 281.272C247.483 281.159 246.728 280.706 245.631 280.441L247.824 279.912C248.164 280.517 248.277 280.743 248.655 281.272ZM182.287 274.431C186.217 273.524 186.784 276.888 185.31 276.888C183.723 276.888 182.476 275.906 182.287 274.431ZM228.926 262.639L229.191 259.88C232.025 259.956 231.231 260.22 232.668 263.017C234.406 266.419 233.575 264.076 232.743 267.553C231.08 266.759 231.08 267.855 229.984 265.928C229.531 265.058 228.926 263.924 228.926 262.639ZM626.683 256.857C627.591 255.647 627.439 256.592 630.539 256.592C630.387 258.142 629.745 258.142 629.443 259.351L626.683 256.857ZM602.003 241.814C599.962 241.814 600.491 241.625 599.282 241.512C599.395 236.22 603.099 237.052 603.099 238.526C603.099 239.622 603.288 241.814 602.003 241.814ZM173.518 237.43C175.068 237.543 176.239 237.694 178.205 237.694L175.446 239.32C173.329 237.883 173.934 238.224 173.518 237.43ZM590.513 230.551C589.606 229.946 589.909 230.098 589.417 229.191C590.589 228.586 590.702 228.17 591.874 227.528C591.647 228.51 590.929 229.72 590.513 230.551ZM529.096 168.869C529.096 166.753 528.945 167.357 529.361 165.581C532.346 167.584 532.989 169.436 534.312 172.157C533.594 172.195 531.213 172.498 530.759 172.724C530.003 171.628 529.096 170.797 529.096 168.869ZM149.405 142.564V142.299C149.405 141.506 149.518 141.77 149.972 141.468V143.395C149.48 143.055 149.405 143.357 149.405 142.564ZM378.331 101.707C381.317 102.425 382.413 103.408 387.364 102.539C390.69 101.972 389.405 100.913 392.882 105.26C393.298 105.789 393.335 105.902 393.865 106.469C400.252 113.083 404.107 112.554 407.206 114.217C408 114.671 409.587 119.698 411.288 122.759C411.817 123.704 412.233 124.498 412.838 125.329C413.443 126.236 413.934 126.992 414.614 127.899C415.937 129.676 416.995 130.998 418.394 132.624L422.438 137.083C421.455 137.008 420.208 136.101 419.263 135.609L409.587 130.507C409.587 125.594 409.209 124.157 406.413 120.529C401.877 114.671 391.37 111.95 384.718 109.304L379.691 107.754C379.691 105.184 379.2 103.37 378.331 101.707ZM299.376 98.4189C299.792 98.1543 300.359 97.5874 301.002 97.5874C303.231 97.5874 304.706 99.3638 305.121 101.178C302.589 101.745 301.039 101.594 299.376 98.4189ZM435.628 85.2661L436.762 86.2866C435.78 86.0976 435.855 86.211 435.628 85.2661ZM373.115 86.6268C371.943 86.3622 369.487 86.1354 368.504 85.7575C365.934 84.737 365.972 78.7654 367.824 76.6866C370.318 73.8898 370.507 74.4945 373.493 75.0236C378.331 75.8551 375.798 75.8551 377.235 81.978C375.912 82.8472 373.531 85.0016 373.115 86.6268ZM424.101 66.0661C423.496 64.8567 424.894 63.3449 425.461 62.2488C426.028 62.5512 426.104 62.6268 426.822 62.778L424.101 66.0661ZM428.75 60.0567C427.956 59.6787 427.994 59.7921 426.822 59.7921L429.581 54.8409C429.43 56.4661 428.787 58.3937 428.75 60.0567ZM289.776 54.5764C288.983 53.3669 288.151 53.4047 287.282 52.0819C288.567 50.1921 289.776 50.8346 290.381 50.9102C292.157 51.1748 293.329 50.9102 294.992 51.2882C294.69 51.515 295.03 51.2882 294.501 51.6283L289.776 54.5764Z" fill="url(#paint0_linear_150_537)"/>
<defs>
<linearGradient id="paint0_linear_150_537" x1="474.013" y1="425.907" x2="212.078" y2="111.693" gradientUnits="userSpaceOnUse">
<stop stop-color="#D96C7E"/>
<stop offset="1" stop-color="#E37A8B"/>
</linearGradient>
</defs>
</svg>
